<svg height="24" viewBox="0 0 24 24" width="24" xmlns="http://www.w3.org/2000/svg"><path d="m17.75 3c1.7949254 0 3.25 1.45507456 3.25 3.25v11.5c0 1.7949254-1.4550746 3.25-3.25 3.25h-11.5c-1.79492544 0-3.25-1.4550746-3.25-3.25v-11.5c0-1.79492544 1.45507456-3.25 3.25-3.25zm-6.75 4c-2.209139 0-4 1.790861-4 4s1.790861 4 4 4c.7414004 0 1.4356896-.2017072 2.0309842-.5532383l2.261909 2.2603451.0942074.0831886c.3922912.3050249.9595222.2772953 1.3200062-.0831886.3905243-.3905243.3905243-1.0236893 0-1.4142136l-2.2603451-2.261909c.3515311-.5952946.5532383-1.2895838.5532383-2.0309842 0-2.209139-1.790861-4-4-4zm0 2c1.1045695 0 2 .8954305 2 2s-.8954305 2-2 2-2-.8954305-2-2 .8954305-2 2-2z" fill="#212121"/></svg>